<svg width="100" height="121" viewBox="0 0 100 121" fill="none" xmlns="http://www.w3.org/2000/svg">
<rect x="9.70874" width="90.2913" height="115" rx="6" fill="#312A1B"/>
<rect y="5" width="90.2913" height="115" rx="6" fill="#1F1C16"/>
<path d="M42.502 90.82C38.074 90.82 33.7827 90.1913 29.628 88.934C25.528 87.6767 22.2753 86.0093 19.87 83.932L23.56 75.65C25.9107 77.5087 28.7807 79.0393 32.17 80.242C35.614 81.39 39.058 81.964 42.502 81.964C46.766 81.964 49.9367 81.2807 52.014 79.914C54.146 78.5473 55.212 76.7433 55.212 74.502C55.212 72.862 54.6107 71.5227 53.408 70.484C52.26 69.3907 50.784 68.5433 48.98 67.942C47.176 67.3407 44.716 66.6573 41.6 65.892C37.2267 64.8533 33.6733 63.8147 30.94 62.776C28.2613 61.7373 25.938 60.1247 23.97 57.938C22.0567 55.6967 21.1 52.69 21.1 48.918C21.1 45.7473 21.9473 42.8773 23.642 40.308C25.3913 37.684 27.988 35.6067 31.432 34.076C34.9307 32.5453 39.1947 31.78 44.224 31.78C47.7227 31.78 51.1667 32.2173 54.556 33.092C57.9453 33.9667 60.87 35.224 63.33 36.864L59.968 45.146C57.4533 43.67 54.8293 42.5493 52.096 41.784C49.3627 41.0187 46.7113 40.636 44.142 40.636C39.9327 40.636 36.7893 41.3467 34.712 42.768C32.6893 44.1893 31.678 46.0753 31.678 48.426C31.678 50.066 32.252 51.4053 33.4 52.444C34.6027 53.4827 36.106 54.3027 37.91 54.904C39.714 55.5053 42.174 56.1887 45.29 56.954C49.554 57.938 53.0527 58.9767 55.786 60.07C58.5193 61.1087 60.8427 62.7213 62.756 64.908C64.724 67.0947 65.708 70.0467 65.708 73.764C65.708 76.9347 64.8333 79.8047 63.084 82.374C61.3893 84.9433 58.7927 86.9933 55.294 88.524C51.7953 90.0547 47.5313 90.82 42.502 90.82Z" fill="#BDA698"/>
</svg>
